<svg xmlns="http://www.w3.org/2000/svg" viewBox="0 0 556.64 71.4"><defs><style>.cls-1{fill:#1c1c1c;}</style></defs><g id="Layer_2" data-name="Layer 2"><g id="Layer_1-2" data-name="Layer 1"><path class="cls-1" d="M224.55,34a17.78,17.78,0,0,1,6.94,7A21.08,21.08,0,0,1,234,51.46a21.07,21.07,0,0,1-2.52,10.47,17.87,17.87,0,0,1-6.94,7,19.83,19.83,0,0,1-9.83,2.48q-8,0-12.17-5v4.46H191.82V17.4h11.23V36.19c2.84-3.12,6.72-4.68,11.67-4.68A19.73,19.73,0,0,1,224.55,34Zm-4.68,25.27a10.91,10.91,0,0,0,2.77-7.81,10.92,10.92,0,0,0-2.77-7.82,10.1,10.1,0,0,0-14.19,0,10.88,10.88,0,0,0-2.77,7.82,10.87,10.87,0,0,0,2.77,7.81,10.1,10.1,0,0,0,14.19,0Z"/><path class="cls-1" d="M242.08,24.89a5.84,5.84,0,0,1-2-4.47,5.83,5.83,0,0,1,2-4.46,7.1,7.1,0,0,1,5-1.8,7.33,7.33,0,0,1,5,1.73,5.55,5.55,0,0,1,1.94,4.32,6.12,6.12,0,0,1-1.94,4.64,7,7,0,0,1-5,1.84A7.1,7.1,0,0,1,242.08,24.89Zm-.58,7.2h11.23V70.82H241.5Z"/><path class="cls-1" d="M300.9,54.62H271.6a9.08,9.08,0,0,0,3.74,5.69,12.43,12.43,0,0,0,7.35,2.09,14.87,14.87,0,0,0,5.36-.9,13,13,0,0,0,4.35-2.84l6,6.48q-5.47,6.26-16,6.26a25.17,25.17,0,0,1-11.59-2.56A18.59,18.59,0,0,1,263,61.75a19.46,19.46,0,0,1-2.74-10.29A19.75,19.75,0,0,1,263,41.2a18.85,18.85,0,0,1,7.42-7.13A22.93,22.93,0,0,1,291.25,34a17.85,17.85,0,0,1,7.24,7,21,21,0,0,1,2.63,10.62C301.12,51.74,301,52.75,300.9,54.62ZM274.62,42.17a9.22,9.22,0,0,0-3.17,5.9h19.08a9.28,9.28,0,0,0-3.17-5.87A9.47,9.47,0,0,0,281,40,9.67,9.67,0,0,0,274.62,42.17Z"/><path class="cls-1" d="M308.6,17.4h11.24V70.82H308.6Z"/><path class="cls-1" d="M368,54.62H338.7a9.16,9.16,0,0,0,3.74,5.69,12.43,12.43,0,0,0,7.35,2.09,14.87,14.87,0,0,0,5.36-.9,13.15,13.15,0,0,0,4.36-2.84l6,6.48q-5.46,6.26-16,6.26a25.2,25.2,0,0,1-11.59-2.56,18.71,18.71,0,0,1-7.78-7.09,19.54,19.54,0,0,1-2.73-10.29,19.75,19.75,0,0,1,2.7-10.26,18.89,18.89,0,0,1,7.41-7.13A22.95,22.95,0,0,1,358.36,34a17.83,17.83,0,0,1,7.23,7,21,21,0,0,1,2.63,10.62C368.22,51.74,368.15,52.75,368,54.62ZM341.72,42.17a9.21,9.21,0,0,0-3.16,5.9h19.08a9.32,9.32,0,0,0-3.17-5.87A9.49,9.49,0,0,0,348.13,40,9.69,9.69,0,0,0,341.72,42.17Z"/><path class="cls-1" d="M436.87,35.8q4.29,4.28,4.29,12.85V70.82H429.92V50.38q0-4.62-1.9-6.88a6.74,6.74,0,0,0-5.44-2.27,8,8,0,0,0-6.26,2.56Q414,46.34,414,51.38V70.82H402.78V50.38q0-9.15-7.34-9.15a7.92,7.92,0,0,0-6.2,2.56q-2.3,2.55-2.3,7.59V70.82H375.71V32.09h10.73v4.46a14.12,14.12,0,0,1,5.29-3.74,17.7,17.7,0,0,1,6.87-1.3A16.66,16.66,0,0,1,406,33.13a13.13,13.13,0,0,1,5.33,4.72,15.8,15.8,0,0,1,6-4.68,18.88,18.88,0,0,1,8-1.66C430.16,31.51,434,32.94,436.87,35.8Z"/><path class="cls-1" d="M480.68,35.8q4.83,4.28,4.83,12.92v22.1H475V66q-3.18,5.4-11.81,5.4a18.27,18.27,0,0,1-7.74-1.51,11.56,11.56,0,0,1-5-4.18,10.86,10.86,0,0,1-1.72-6,10.08,10.08,0,0,1,4.06-8.49q4.07-3.11,12.57-3.1h8.92A7.14,7.14,0,0,0,472,42.42c-1.48-1.32-3.72-2-6.69-2a19.49,19.49,0,0,0-6.09,1A16.19,16.19,0,0,0,454.19,44l-4-7.85a24.27,24.27,0,0,1,7.6-3.45,33.88,33.88,0,0,1,9.11-1.23Q475.86,31.51,480.68,35.8Zm-9.57,26.71a7.31,7.31,0,0,0,3.16-3.93v-4h-7.7c-4.61,0-6.91,1.52-6.91,4.54a4,4,0,0,0,1.69,3.42A7.64,7.64,0,0,0,466,63.84,9.79,9.79,0,0,0,471.11,62.51Z"/><path class="cls-1" d="M530.83,35.83q4.42,4.32,4.43,12.82V70.82H524V50.38c0-3.08-.68-5.37-2-6.88a7.4,7.4,0,0,0-5.83-2.27,9,9,0,0,0-6.77,2.63c-1.68,1.75-2.52,4.36-2.52,7.81V70.82H495.66V32.09h10.73v4.53a14.85,14.85,0,0,1,5.54-3.78,19.47,19.47,0,0,1,7.27-1.33Q526.4,31.51,530.83,35.83Z"/><path class="cls-1" d="M544.69,69.38a6.84,6.84,0,0,1-2-5,6.58,6.58,0,0,1,2-5,7.42,7.42,0,0,1,9.94,0,6.58,6.58,0,0,1,2,5,6.84,6.84,0,0,1-2,5,7.12,7.12,0,0,1-9.94,0Z"/><path class="cls-1" d="M55,68.52Q51.19,65,51.19,58.15V42.24h-6V33.6h6V24.16H62.42V33.6h9.65v8.64H62.42V58a5.26,5.26,0,0,0,1.26,3.78,4.67,4.67,0,0,0,3.57,1.34,7.22,7.22,0,0,0,4.53-1.44l3,7.92a11,11,0,0,1-1.46.87H89.54a21.16,21.16,0,0,1-2.17-1,19.12,19.12,0,0,1-7.6-7.09A19.6,19.6,0,0,1,77,52.1a19.6,19.6,0,0,1,2.73-10.3,19.12,19.12,0,0,1,7.6-7.09,23.27,23.27,0,0,1,11-2.55,23,23,0,0,1,10.94,2.55,19.07,19.07,0,0,1,7.56,7.09,19.52,19.52,0,0,1,2.74,10.3,19.52,19.52,0,0,1-2.74,10.3,19.07,19.07,0,0,1-7.56,7.09,19.91,19.91,0,0,1-2.15,1h19.94V32.73h10.73V37.2a14.15,14.15,0,0,1,5.29-3.75A17.88,17.88,0,0,1,150,32.16a16.66,16.66,0,0,1,7.42,1.62,13.18,13.18,0,0,1,5.33,4.71,16,16,0,0,1,6-4.68,19,19,0,0,1,8-1.65c4.84,0,8.7,1.42,11.55,4.28A14.45,14.45,0,0,1,192,43.88V0H0V70.47H57.86A11.93,11.93,0,0,1,55,68.52Z"/><path class="cls-1" d="M146.81,41.88a7.94,7.94,0,0,0-6.2,2.55q-2.3,2.57-2.3,7.6V70.47h15.84V51Q154.15,41.87,146.81,41.88Z"/><path class="cls-1" d="M174,41.88a8,8,0,0,0-6.26,2.55Q165.38,47,165.38,52V70.47h15.91V51q0-4.6-1.9-6.88A6.73,6.73,0,0,0,174,41.88Z"/><path class="cls-1" d="M108.21,52.1a10.86,10.86,0,0,0-2.77-7.81,9.34,9.34,0,0,0-7.09-2.92,9.45,9.45,0,0,0-7.13,2.92,10.79,10.79,0,0,0-2.81,7.81,10.79,10.79,0,0,0,2.81,7.81,9.45,9.45,0,0,0,7.13,2.92,9.34,9.34,0,0,0,7.09-2.92A10.86,10.86,0,0,0,108.21,52.1Z"/></g></g></svg>